<svg class="typst-doc" viewBox="0 0 20.936 21.426" width="20.936pt" height="21.426pt" xmlns="http://www.w3.org/2000/svg" xmlns:xlink="http://www.w3.org/1999/xlink" xmlns:h5="http://www.w3.org/1999/xhtml">
    
    <g>
        <g class="typst-text" transform="matrix(1 0 0 -1 4 13.87)">
            <use xlink:href="#gC5CA84B15988573631A67EB11DBB5782" x="0" y="0" fill="#000000" fill-rule="nonzero"/>
        </g>
        <g class="typst-text" transform="matrix(1 0 0 -1 10.86 17.328)">
            <use xlink:href="#g30AE53387570EAF61421F98270D7E6F3" x="0" y="0" fill="#000000" fill-rule="nonzero"/>
        </g>
    </g>
    <defs id="glyph">
        <symbol id="gC5CA84B15988573631A67EB11DBB5782" overflow="visible">
            <path d="M 0 0m 7.728 8.862 c 0 0.6160002 -0.60199976 1.0079994 -1.2599998 1.0079994 c -0.86800003 0 -1.4700003 -0.55999947 -1.7920003 -1.6659994 c -0.07000017 -0.25200033 -0.22399998 -0.9660001 -0.44799995 -2.1420002 h -0.9100001 c -0.3080001 0 -0.4619999 -0.013999939 -0.4619999 -0.3080001 c 0 -0.1539998 0.13999987 -0.22399998 0.43400002 -0.22399998 h 0.8399999 l -1.0220001 -5.418 c -0.15400004 -0.79800004 -0.2939999 -1.386 -0.41999984 -1.778 c -0.16800022 -0.518 -0.40600014 -0.78400004 -0.7140001 -0.78400004 c -0.21000004 0 -0.37800002 0.055999994 -0.53200006 0.15400004 c 0.44800007 0.06999993 0.67200005 0.33599997 0.67200005 0.7839999 c 0 0.36400008 -0.18200004 0.54600006 -0.56000006 0.54600006 c -0.47599995 0 -0.812 -0.42000002 -0.812 -0.8960001 c 0 -0.61600006 0.57399994 -1.008 1.2320001 -1.008 c 0.35000002 0 0.67200005 0.1400001 0.9380001 0.43400002 c 0.44799995 0.462 0.79799986 1.1200001 1.05 2.002 c 0.15400004 0.546 0.2939999 1.0780001 0.39199996 1.61 l 0.8120003 4.354 h 1.1479998 c 0.32200003 0 0.4619999 0.013999939 0.4619999 0.33599997 c 0 0.12599993 -0.13999987 0.1960001 -0.4199996 0.1960001 h -1.0780001 c 0.083999634 0.5739999 0.47599983 2.6879997 0.60199976 2.9540005 c 0.13999987 0.29399967 0.33599997 0.43400002 0.5880003 0.43400002 c 0.20999956 0 0.39199972 -0.05600071 0.546 -0.15400028 c -0.43400002 -0.09800053 -0.658 -0.35000038 -0.658 -0.7840004 c 0 -0.36399937 0.18199968 -0.546 0.55999994 -0.546 c 0.47599983 0 0.8119998 0.42000055 0.8119998 0.8960004 Z "/>
        </symbol>
        <symbol id="g30AE53387570EAF61421F98270D7E6F3" overflow="visible">
            <path d="M 0 0m 5.0176 3.5770001 c 0 0.5095997 -0.5194001 0.7448001 -1.0583999 0.7448001 c -0.4998002 0 -0.95060015 -0.21560001 -1.3426001 -0.6468003 c -0.058799982 0.15680003 -0.14700007 0.2842002 -0.2744 0.39199996 c -0.22539997 0.16660023 -0.47039998 0.25480032 -0.735 0.25480032 c -0.33319998 0 -0.5978 -0.16660023 -0.78400004 -0.50960016 c -0.245 -0.42140007 -0.36259997 -0.75460005 -0.36259997 -0.99959993 c 0 -0.10780001 0.0686 -0.16659999 0.2058 -0.16659999 c 0.19599998 0 0.18620002 0.10779977 0.245 0.31359982 c 0.16660005 0.67620015 0.39200002 1.0192001 0.6664 1.0192001 c 0.18620002 0 0.28419995 -0.14700007 0.28419995 -0.44099998 c 0 -0.10780001 -0.049000025 -0.3626001 -0.15679991 -0.78400016 l -0.5194001 -2.0972 c -0.06859994 -0.26459998 -0.09799993 -0.4018 -0.09799993 -0.4116 c 0 -0.2254 0.117599964 -0.343 0.36259997 -0.343 c 0.34300005 0 0.44099998 0.21560001 0.5194 0.53900003 c 0.21560001 0.89180005 0.3822 1.5582 0.49979997 2.0188 c 0.08820009 0.31360006 0.12740016 0.48020005 0.12740016 0.49 c 0.009799957 0.049000025 0.0783999 0.16659999 0.20579982 0.34299994 c 0.32340002 0.46060014 0.7056 0.6860001 1.1466 0.6860001 c 0.16660023 0 0.31360006 -0.02940011 0.43120003 -0.08820009 c -0.24499989 -0.10780001 -0.36259985 -0.28419995 -0.36259985 -0.53900003 c 0 -0.23519993 0.18620014 -0.40179992 0.42140007 -0.40179992 c 0.33319998 0 0.57819986 0.2939999 0.57819986 0.6272001 Z "/>
        </symbol>
    </defs>
</svg>
