<svg class="typst-doc" viewBox="0 0 100.946 21.5898" width="100.946pt" height="21.5898pt" xmlns="http://www.w3.org/2000/svg" xmlns:xlink="http://www.w3.org/1999/xlink" xmlns:h5="http://www.w3.org/1999/xhtml">
    
    <g>
        <g class="typst-group">
            <g>
                <g class="typst-text" transform="matrix(1 0 0 -1 4 14.024)">
                    <use xlink:href="#gB02126F88256C829A1D86538A5940488" x="0" y="0" fill="#000000" fill-rule="nonzero"/>
                </g>
                <g class="typst-text" transform="matrix(1 0 0 -1 12.708 17.482)">
                    <use xlink:href="#gF2F82727FA24E03D7390DEB071A16441" x="0" y="0" fill="#000000" fill-rule="nonzero"/>
                    <use xlink:href="#g68FAA00747108D1B7D24C9FFDE6C0AAE" x="3.8122" y="0" fill="#000000" fill-rule="nonzero"/>
                    <use xlink:href="#gC054EF26342B1C5859701D6EF096B8BD" x="7.6538" y="0" fill="#000000" fill-rule="nonzero"/>
                </g>
                <g class="typst-text" transform="matrix(1 0 0 -1 27.75908888888889 14.024)">
                    <use xlink:href="#gB9A8970EA5BAC656A3E0BA9A671B291A" x="0" y="0" fill="#000000" fill-rule="nonzero"/>
                </g>
                <g class="typst-text" transform="matrix(1 0 0 -1 42.53997777777777 14.024)">
                    <use xlink:href="#gE7727E72944D7067EE809C0E023798F7" x="0" y="0" fill="#000000" fill-rule="nonzero"/>
                </g>
                <g class="typst-text" transform="matrix(1 0 0 -1 52.07397777777778 17.482)">
                    <use xlink:href="#gCD98DAA600FF282B50DCF0627BC0ABEF" x="0" y="0" fill="#000000" fill-rule="nonzero"/>
                </g>
                <g class="typst-text" transform="matrix(1 0 0 -1 61.28068888888889 14.024)">
                    <use xlink:href="#gF40ADB41B76B9047EF2FE7760AA0C53B" x="0" y="0" fill="#000000" fill-rule="nonzero"/>
                </g>
                <g class="typst-text" transform="matrix(1 0 0 -1 75.2838 14.024)">
                    <use xlink:href="#g7E42FA7F654A1CDC084AE4F0EEA7440F" x="0" y="0" fill="#000000" fill-rule="nonzero"/>
                </g>
                <g class="typst-text" transform="matrix(1 0 0 -1 85.7838 17.482)">
                    <use xlink:href="#gF2F82727FA24E03D7390DEB071A16441" x="0" y="0" fill="#000000" fill-rule="nonzero"/>
                    <use xlink:href="#g68FAA00747108D1B7D24C9FFDE6C0AAE" x="3.8122" y="0" fill="#000000" fill-rule="nonzero"/>
                    <use xlink:href="#gC054EF26342B1C5859701D6EF096B8BD" x="7.6538" y="0" fill="#000000" fill-rule="nonzero"/>
                </g>
            </g>
        </g>
    </g>
    <defs id="glyph">
        <symbol id="gB02126F88256C829A1D86538A5940488" overflow="visible">
            <path d="M 0 0m 5.6280003 1.876 c 0.90999985 0.07000005 1.7080002 0.35000002 2.422 0.81200016 c 0.84000015 0.55999994 1.2600002 1.26 1.2600002 2.086 c 0 0.8260002 -0.42000008 1.526 -1.2600002 2.086 c -0.71399975 0.4760003 -1.5120001 0.75600004 -2.422 0.8260002 v 0.72800016 c 0 0.18200016 0.013999939 0.29399967 0.055999756 0.36399937 c 0.07000017 0.15400028 0.46200037 0.23800087 1.204 0.23800087 h 0.5180001 v 0.5459995 c -0.37799978 -0.027999878 -1.1760001 -0.041999817 -2.394 -0.041999817 c -1.2319999 0 -2.03 0.013999939 -2.408 0.041999817 v -0.5459995 h 0.5179999 c 0.7420001 0 1.148 -0.07000065 1.2180002 -0.22400093 c 0.027999878 -0.069999695 0.041999817 -0.19599915 0.041999817 -0.3779993 v -0.72800016 c -0.8959999 -0.09800005 -1.6799998 -0.37800026 -2.366 -0.84000015 c -0.826 -0.546 -1.232 -1.2319999 -1.232 -2.058 c 0 -0.826 0.40600002 -1.5120001 1.218 -2.072 c 0.6860001 -0.4619999 1.484 -0.742 2.3799999 -0.84000003 v -0.72800004 c 0 -0.18199998 -0.013999939 -0.29399997 -0.041999817 -0.36399996 c -0.07000017 -0.15400004 -0.47600007 -0.23800004 -1.2180002 -0.23800004 h -0.5179999 v -0.546 c 0.37800002 0.028 1.1760001 0.042000003 2.394 0.042000003 c 1.2319999 0 2.0300002 -0.014000002 2.408 -0.042000003 v 0.546 h -0.5180001 c -0.7419996 0 -1.1339998 0.06999999 -1.204 0.22400004 c -0.041999817 0.06999999 -0.055999756 0.19599998 -0.055999756 0.37799996 Z m 0 5.3900003 c 1.4559999 -0.18200016 2.184 -1.0079999 2.184 -2.4780002 c 0 -1.47 -0.72800016 -2.296 -2.184 -2.492 Z m -1.2460003 -0.013999939 v -4.9420004 c -1.3999999 0.2099998 -2.1 1.0219998 -2.1 2.464 c 0 1.4419999 0.70000005 2.2680001 2.1 2.4780002 Z "/>
        </symbol>
        <symbol id="gF2F82727FA24E03D7390DEB071A16441" overflow="visible">
            <path d="M 0 0m 3.2536001 1.2348 v 0.58800006 h -0.31360006 v -0.5684 c 0 -0.49 -0.17639995 -1.0388 -0.6076 -1.0388 c -0.40180004 0 -0.5978 0.33319998 -0.5978 0.99960005 v 2.6557999 h 1.3622 v 0.37240005 h -1.3622 v 1.7835999 h -0.31360006 c -0.009799957 -0.32340002 -0.03919995 -0.60759974 -0.10780001 -0.86240005 c -0.16659999 -0.64680004 -0.5488 -0.98 -1.127 -1.0093999 v -0.28419995 h 0.8134 v -2.6362 c 0 -0.5782 0.1764 -0.95059997 0.51940006 -1.1367999 c 0.26459992 -0.1372 0.5095999 -0.2058 0.75460005 -0.2058 c 0.64680004 0 0.98 0.64680004 0.98 1.3426 Z "/>
        </symbol>
        <symbol id="g68FAA00747108D1B7D24C9FFDE6C0AAE" overflow="visible">
            <path d="M 0 0m 3.5672 3.7044 c 0 0.38219976 -0.36259985 0.6272001 -0.74479985 0.6272001 c -0.49979997 0 -0.8820001 -0.29400015 -1.1368 -0.89180017 v 0.89180017 l -1.4112 -0.10780001 v -0.37240005 c 0.343 0 0.5488 -0.02940011 0.6272 -0.08820009 c 0.078400016 -0.058799982 0.117599964 -0.1861999 0.117599964 -0.4116001 v -2.5774 c 0 -0.18620002 -0.029399931 -0.30380002 -0.09799993 -0.34300002 c -0.0686 -0.039199978 -0.2842 -0.058799982 -0.64680004 -0.058799982 v -0.37240002 l 1.127 0.0294 c 0.4116 0.0098 0.83300006 0 1.2544001 -0.0294 v 0.37240002 h -0.23520017 c -0.32340002 0 -0.52919996 0.029399991 -0.5977999 0.078399986 c -0.06860006 0.048999995 -0.09800005 0.16659999 -0.09800005 0.343 v 1.4798001 c 0 0.42139983 0.078400016 0.80359983 0.22540009 1.1269999 c 0.19599986 0.42140007 0.48020005 0.6370001 0.86240005 0.64680004 c -0.09800005 -0.09800005 -0.14700007 -0.21560001 -0.14700007 -0.3527999 c 0 -0.3038001 0.14700007 -0.45080018 0.45079994 -0.45080018 c 0.26460004 0 0.45079994 0.20580006 0.45079994 0.46060014 Z "/>
        </symbol>
        <symbol id="gC054EF26342B1C5859701D6EF096B8BD" overflow="visible">
            <path d="M 0 0m 1.9012 5.8898 c 0 0.29400015 -0.245 0.5488 -0.53900003 0.5488 c -0.29400003 0 -0.5488 -0.25479984 -0.5488 -0.5488 c 0 -0.29400015 0.245 -0.55859995 0.53900003 -0.55859995 c 0.3038 0 0.5488 0.25479984 0.5488 0.55859995 Z m -0.4998001 -5.8604 l 1.0192 -0.0294 v 0.3822 c -0.32340002 0 -0.5193999 0.019600004 -0.57819986 0.058800012 c -0.0588001 0.039199978 -0.078400016 0.14699998 -0.078400016 0.3234 v 3.5966 l -1.4014001 -0.117599964 v -0.37240005 c 0.3234 0 0.52919996 -0.02940011 0.5978 -0.0783999 c 0.06860006 -0.049000025 0.09800005 -0.18620014 0.09800005 -0.4116001 v -2.6068 c 0 -0.18620002 -0.029399991 -0.30380002 -0.09800005 -0.34300002 c -0.0686 -0.039199978 -0.28419995 -0.048999995 -0.63699996 -0.048999995 v -0.3822 Z "/>
        </symbol>
        <symbol id="gB9A8970EA5BAC656A3E0BA9A671B291A" overflow="visible">
            <path d="M 0 0m 9.772 5.138 h -8.652 c -0.22399998 0 -0.33599997 -0.11199999 -0.33599997 -0.32200003 c 0 -0.21000004 0.11199999 -0.32200003 0.33599997 -0.32200003 h 8.652 c 0.22399998 0 0.33600044 0.11199999 0.33600044 0.32200003 c 0 0.16800022 -0.15400028 0.32200003 -0.33600044 0.32200003 Z m 0 -2.632 h -8.652 c -0.22399998 0 -0.33599997 -0.11199999 -0.33599997 -0.32200003 c 0 -0.20999992 0.11199999 -0.3219999 0.33599997 -0.3219999 h 8.652 c 0.22399998 0 0.33600044 0.11199999 0.33600044 0.3219999 c 0 0.18200016 -0.15400028 0.32200003 -0.33600044 0.32200003 Z "/>
        </symbol>
        <symbol id="gE7727E72944D7067EE809C0E023798F7" overflow="visible">
            <path d="M 0 0m 7.28 9.338 c 0 0.15400028 -0.09800005 0.22399998 -0.2800002 0.22399998 l -2.0439997 -0.041999817 l -1.8340003 0.041999817 c -0.2099998 0.013999939 -0.3219998 -0.09799957 -0.3219998 -0.33600044 c 0 -0.09799957 0.041999817 -0.16799927 0.12599993 -0.1819992 c 0.12599993 -0.013999939 0.23799992 -0.027999878 0.3080001 -0.027999878 c 0.43400002 -0.014000893 0.67199993 -0.04200077 0.74199986 -0.05600071 c 0.06999993 -0.013999939 0.11200023 -0.055999756 0.11200023 -0.12599945 c 0 -0.027999878 -0.013999939 -0.112000465 -0.056000233 -0.25199986 l -1.848 -7.434001 c -0.08399987 -0.30799997 -0.22399998 -0.49 -0.43400002 -0.56 c -0.08399999 -0.027999997 -0.33599997 -0.041999996 -0.77 -0.041999996 c -0.29399997 0 -0.43400002 -0.11199999 -0.43400002 -0.336 c 0 -0.14000002 0.14000005 -0.21000001 0.43400002 -0.21000001 h 6.3980002 c 0.3499999 0 0.37799978 0 0.47599983 0.266 l 1.092 2.996 c 0.041999817 0.09800005 0.055999756 0.16799998 0.055999756 0.21000004 c 0 0.1400001 -0.069999695 0.21000004 -0.22399998 0.21000004 c -0.13999939 0 -0.21000004 -0.12600017 -0.27999973 -0.32200003 c -0.2659998 -0.6860001 -0.5180001 -1.204 -0.7279997 -1.526 c -0.5180001 -0.78400004 -1.4000001 -1.2880001 -2.6880002 -1.2880001 h -1.302 c -0.15400004 0 -0.2520001 0 -0.29400015 0.013999999 c -0.09800005 0 -0.13999987 0.027999997 -0.13999987 0.06999999 c 0 0.027999997 0.027999878 0.12600005 0.06999993 0.30800003 l 1.8620002 7.4760003 c 0.083999634 0.32199955 0.2659998 0.5039997 0.5319996 0.5739994 c 0.08400011 0.013999939 0.37800026 0.028000832 0.88200045 0.028000832 c 0.39199972 0 0.5879998 0 0.5879998 0.32199955 Z "/>
        </symbol>
        <symbol id="gCD98DAA600FF282B50DCF0627BC0ABEF" overflow="visible">
            <path d="M 0 0m 4.6452003 1.2348 c -0.05880022 0 -0.117599964 -0.03919995 -0.17640018 -0.117599964 c -0.49979997 -0.5782 -1.1760001 -0.8722 -2.0188 -0.8722 c -0.61740005 0 -0.931 0.3724 -0.931 1.127 c 0 0.20580006 0.03919995 0.48020005 0.10780001 0.8232 h 0.57819986 c 1.6170001 0 2.4304 0.4116001 2.4304 1.2446 c 0 0.5782001 -0.60759974 0.8820002 -1.2249997 0.8820002 c -0.4116001 0 -0.8232002 -0.09800005 -1.2348001 -0.2842002 c -0.7938 -0.3626001 -1.519 -1.2054 -1.519 -2.2834 c 0 -1.078 0.69580007 -1.8522 1.7738001 -1.8522 c 0.6076 0 1.1269999 0.11760001 1.5581999 0.3528 c 0.22540021 0.12740001 0.8623998 0.53900003 0.8623998 0.7742001 c 0 0.08819997 -0.117599964 0.20579994 -0.20579958 0.20579994 Z m -0.4998002 2.205 c 0 -0.5978 -0.66639996 -0.9015999 -1.9992001 -0.9015999 h -0.42139995 c 0.18620002 0.61739993 0.48019993 1.0289998 0.89180005 1.2152 c 0.32340002 0.14700007 0.58800006 0.22539997 0.7938001 0.22539997 c 0.3723998 0 0.7349999 -0.1861999 0.7349999 -0.53900003 Z "/>
        </symbol>
        <symbol id="gF40ADB41B76B9047EF2FE7760AA0C53B" overflow="visible">
            <path d="M 0 0m 8.820001 0.448 c 0 0.09799999 -0.028000832 0.16799998 -0.09800053 0.23800004 l -2.8140001 2.814 l 2.8140001 2.8140001 c 0.069999695 0.07000017 0.09800053 0.13999987 0.09800053 0.23799992 c 0 0.18200016 -0.14000034 0.32200003 -0.3220005 0.32200003 c -0.09799957 0 -0.16800022 -0.027999878 -0.23799992 -0.09800005 l -2.8140001 -2.814 l -2.8140001 2.814 c -0.06999993 0.07000017 -0.13999987 0.09800005 -0.23799992 0.09800005 c -0.18199992 0 -0.32200003 -0.13999987 -0.32200003 -0.32200003 c 0 -0.09800005 0.028000116 -0.16799974 0.09800005 -0.23799992 l 2.8140001 -2.8140001 l -2.8140001 -2.814 c -0.06999993 -0.07000005 -0.09800005 -0.14000005 -0.09800005 -0.23800004 c 0 -0.18200001 0.1400001 -0.32200003 0.32200003 -0.32200003 c 0.09800005 0 0.16799998 0.027999997 0.23799992 0.098000005 l 2.8140001 2.8140001 l 2.8140001 -2.8140001 c 0.069999695 -0.07000001 0.14000034 -0.098000005 0.23799992 -0.098000005 c 0.18200016 0 0.3220005 0.14 0.3220005 0.32200003 Z "/>
        </symbol>
        <symbol id="g7E42FA7F654A1CDC084AE4F0EEA7440F" overflow="visible">
            <path d="M 0 0m 1.9180001 0.042000003 c 0.25199997 0 1.12 -0.042000003 1.386 -0.042000003 c 0.21000004 0 0.3080001 0.112 0.3080001 0.322 c 0 0.12600002 -0.08400011 0.21000001 -0.26600003 0.224 c -0.40600014 0.013999999 -0.602 0.15400004 -0.602 0.42000002 c 0 0.12599999 0.12599993 0.40600008 0.39199996 0.82600003 c 0.37800002 0.6300001 0.64400005 1.092 0.826 1.4000001 h 3.4020002 c 0 -0.09800005 0.013999939 -0.29400015 0.055999756 -0.602 c 0.09800005 -1.0220001 0.15400028 -1.5820001 0.15400028 -1.6520002 c 0 -0.26599997 -0.3080001 -0.39200002 -0.9380002 -0.39200002 c -0.2659998 0 -0.3920002 -0.11199999 -0.3920002 -0.336 c 0 -0.14000002 0.08400011 -0.21000001 0.25200033 -0.21000001 c 0.33599997 0 1.4000001 0.042000003 1.7360001 0.042000003 c 0.27999973 0 1.2740002 -0.042000003 1.5539999 -0.042000003 c 0.21000004 0 0.3079996 0.112 0.3079996 0.33600003 c 0 0.13999999 -0.12599945 0.20999998 -0.3779993 0.20999998 c -0.3920002 0 -0.6300001 0.027999997 -0.6999998 0.06999999 c -0.07000065 0.041999996 -0.1260004 0.16800004 -0.14000034 0.37800002 l -0.84000015 8.651999 c -0.041999817 0.26600075 -0.027999878 0.37800026 -0.32200003 0.37800026 c -0.16800022 0 -0.3080001 -0.083999634 -0.40600014 -0.2659998 l -4.816 -8.078 c -0.42000008 -0.70000005 -0.98 -1.0780001 -1.6660001 -1.1340001 c -0.22400004 -0.013999999 -0.33600003 -0.12599999 -0.33600003 -0.336 c 0 -0.14000002 0.08399999 -0.21000001 0.23800004 -0.21000001 c 0.22399998 0 0.96599996 0.042000003 1.19 0.042000003 Z m 4.97 8.036 l 0.42000008 -4.34 h -3.0099998 Z "/>
        </symbol>
    </defs>
</svg>
