<svg class="typst-doc" viewBox="0 0 18.108 17.869999999999997" width="18.108pt" height="17.869999999999997pt" xmlns="http://www.w3.org/2000/svg" xmlns:xlink="http://www.w3.org/1999/xlink" xmlns:h5="http://www.w3.org/1999/xhtml">
    
    <g>
        <g class="typst-text" transform="matrix(1 0 0 -1 4 13.87)">
            <use xlink:href="#g368F1198BD6AEA0ACF4387CA84C6057C" x="0" y="0" fill="#000000" fill-rule="nonzero"/>
        </g>
    </g>
    <defs id="glyph">
        <symbol id="g368F1198BD6AEA0ACF4387CA84C6057C" overflow="visible">
            <path d="M 0 0m 3.7380002 0.35000002 c 0 0.67200005 -0.2520001 1.7080001 -0.7420001 3.0939999 c -0.4619999 1.246 -0.6859999 2.2120001 -0.6859999 2.9120004 c 0 1.7079997 1.0639999 3.0940003 2.7299998 3.0940003 c 1.6660004 0 2.7440004 -1.3860006 2.7440004 -3.0940003 c 0 -0.68600035 -0.26600027 -1.7640004 -0.7840004 -3.2060003 c -0.43400002 -1.232 -0.6439996 -2.17 -0.6439996 -2.8000002 c 0 -0.33600003 0.055999756 -0.35000002 0.40599966 -0.35000002 h 2.2540007 l 0.47599983 2.352 h -0.4619999 c -0.08400059 -0.44799995 -0.16800022 -0.798 -0.2520008 -1.05 c -0.055999756 -0.15400004 -0.1819992 -0.23800004 -0.36399937 -0.27999997 c -0.041999817 -0.014000058 -0.21000004 -0.014000058 -0.5040002 -0.014000058 h -1.0360003 c 0.14000034 0.53200006 0.546 1.288 1.2179999 2.2680001 c 0.8120003 1.2179999 1.2180004 2.2400002 1.2180004 3.066 c 0 1.0500002 -0.4619999 1.9180002 -1.3720002 2.604 c -0.8260002 0.6160002 -1.7919998 0.9239998 -2.8839998 0.9239998 c -1.1060002 0 -2.0720003 -0.3079996 -2.8980002 -0.9239998 c -0.9100001 -0.67199993 -1.3720001 -1.54 -1.3720001 -2.604 c 0 -0.8119998 0.40600002 -1.8339996 1.218 -3.066 c 0.53200006 -0.7839999 0.99399996 -1.4699999 1.2179999 -2.2680001 h -1.036 c -0.47599995 0 -0.7559999 0.07000005 -0.826 0.19599998 c -0.13999999 0.44800007 -0.23800004 0.826 -0.29400003 1.148 h -0.462 l 0.47600007 -2.352 h 2.2680001 c 0.32200003 0 0.39199996 0.028 0.39199996 0.35000002 Z "/>
        </symbol>
    </defs>
</svg>
